<mxfile host="65bd71144e">
    <diagram id="V86D3Y3RGsqECN7tLShg" name="Opt Model">
        <mxGraphModel dx="1050" dy="796" grid="1" gridSize="10" guides="1" tooltips="1" connect="1" arrows="1" fold="1" page="1" pageScale="1" pageWidth="850" pageHeight="1100" math="0" shadow="0">
            <root>
                <mxCell id="0"/>
                <mxCell id="1" parent="0"/>
                <mxCell id="3" value="&lt;b&gt;&lt;font face=&quot;Open sans&quot; data-font-src=&quot;https://fonts.googleapis.com/css?family=Open+sans&quot; style=&quot;font-size: 14px&quot;&gt;Optimization model&lt;/font&gt;&lt;/b&gt;" style="rounded=1;whiteSpace=wrap;html=1;shadow=0;horizontal=1;verticalAlign=top;" parent="1" vertex="1">
                    <mxGeometry x="217.5" y="310" width="425" height="370" as="geometry"/>
                </mxCell>
                <mxCell id="5" value="Variables" style="shape=partialRectangle;whiteSpace=wrap;html=1;left=0;right=0;fillColor=#dae8fc;shadow=0;verticalAlign=top;fontFamily=Open sans;fontSource=https%3A%2F%2Ffonts.googleapis.com%2Fcss%3Ffamily%3DOpen%2Bsans;strokeColor=#6c8ebf;" parent="1" vertex="1">
                    <mxGeometry x="320" y="360" width="220" height="60" as="geometry"/>
                </mxCell>
                <mxCell id="6" value="Constraints" style="shape=partialRectangle;whiteSpace=wrap;html=1;left=0;right=0;fillColor=#d5e8d4;shadow=0;verticalAlign=top;fontFamily=Open sans;fontSource=https%3A%2F%2Ffonts.googleapis.com%2Fcss%3Ffamily%3DOpen%2Bsans;strokeColor=#82b366;" parent="1" vertex="1">
                    <mxGeometry x="320" y="420" width="220" height="60" as="geometry"/>
                </mxCell>
                <mxCell id="9" value="" style="edgeStyle=none;html=1;fontFamily=Open sans;fontSource=https%3A%2F%2Ffonts.googleapis.com%2Fcss%3Ffamily%3DOpen%2Bsans;" parent="1" source="7" target="6" edge="1">
                    <mxGeometry relative="1" as="geometry"/>
                </mxCell>
                <mxCell id="7" value="Objective function" style="shape=partialRectangle;whiteSpace=wrap;html=1;left=0;right=0;fillColor=#ffe6cc;shadow=0;verticalAlign=top;fontFamily=Open sans;fontSource=https%3A%2F%2Ffonts.googleapis.com%2Fcss%3Ffamily%3DOpen%2Bsans;strokeColor=#d79b00;" parent="1" vertex="1">
                    <mxGeometry x="320" y="480" width="220" height="60" as="geometry"/>
                </mxCell>
                <mxCell id="8" value="Parameters&lt;br&gt;(data)" style="shape=partialRectangle;whiteSpace=wrap;html=1;left=0;right=0;fillColor=#f5f5f5;shadow=0;verticalAlign=middle;fontFamily=Open sans;fontSource=https%3A%2F%2Ffonts.googleapis.com%2Fcss%3Ffamily%3DOpen%2Bsans;strokeColor=#666666;fontColor=#333333;" parent="1" vertex="1">
                    <mxGeometry x="365" y="590" width="120" height="60" as="geometry"/>
                </mxCell>
                <mxCell id="10" value="Knobs to be tweaked" style="text;html=1;resizable=0;autosize=1;align=center;verticalAlign=middle;points=[];fillColor=none;strokeColor=none;rounded=0;shadow=0;fontFamily=Open sans;fontSource=https%3A%2F%2Ffonts.googleapis.com%2Fcss%3Ffamily%3DOpen%2Bsans;fontStyle=1" parent="1" vertex="1">
                    <mxGeometry x="370" y="390" width="120" height="20" as="geometry"/>
                </mxCell>
                <mxCell id="11" value="Business rules" style="text;html=1;resizable=0;autosize=1;align=center;verticalAlign=middle;points=[];fillColor=none;strokeColor=none;rounded=0;shadow=0;fontFamily=Open sans;fontSource=https%3A%2F%2Ffonts.googleapis.com%2Fcss%3Ffamily%3DOpen%2Bsans;fontStyle=1" parent="1" vertex="1">
                    <mxGeometry x="385" y="450" width="90" height="20" as="geometry"/>
                </mxCell>
                <mxCell id="12" value="What do we want to optimize?" style="text;html=1;resizable=0;autosize=1;align=center;verticalAlign=middle;points=[];fillColor=none;strokeColor=none;rounded=0;shadow=0;fontFamily=Open sans;fontSource=https%3A%2F%2Ffonts.googleapis.com%2Fcss%3Ffamily%3DOpen%2Bsans;fontStyle=1" parent="1" vertex="1">
                    <mxGeometry x="340" y="510" width="170" height="20" as="geometry"/>
                </mxCell>
            </root>
        </mxGraphModel>
    </diagram>
    <diagram id="TUEU8R7v-asu8lTQ12kP" name="Why opt?">
        <mxGraphModel dx="1050" dy="796" grid="1" gridSize="10" guides="1" tooltips="1" connect="1" arrows="1" fold="1" page="1" pageScale="1" pageWidth="850" pageHeight="1100" math="0" shadow="0">
            <root>
                <mxCell id="9Gz_EmqZ1ZgQvYvoxP-e-0"/>
                <mxCell id="9Gz_EmqZ1ZgQvYvoxP-e-1" parent="9Gz_EmqZ1ZgQvYvoxP-e-0"/>
                <mxCell id="MVi3NGULrBcG0xk-mBak-29" value="Data" style="rounded=1;whiteSpace=wrap;html=1;fontFamily=Open sans;fontSource=https%3A%2F%2Ffonts.googleapis.com%2Fcss%3Ffamily%3DOpen%2Bsans;fontSize=16;fillColor=#d5e8d4;strokeColor=#82b366;" parent="9Gz_EmqZ1ZgQvYvoxP-e-1" vertex="1">
                    <mxGeometry x="160" y="200" width="140" height="60" as="geometry"/>
                </mxCell>
                <mxCell id="MVi3NGULrBcG0xk-mBak-30" value="Forecasts" style="rounded=1;whiteSpace=wrap;html=1;fontFamily=Open sans;fontSource=https%3A%2F%2Ffonts.googleapis.com%2Fcss%3Ffamily%3DOpen%2Bsans;fontSize=16;fillColor=#dae8fc;strokeColor=#6c8ebf;" parent="9Gz_EmqZ1ZgQvYvoxP-e-1" vertex="1">
                    <mxGeometry x="300" y="300" width="140" height="60" as="geometry"/>
                </mxCell>
                <mxCell id="MVi3NGULrBcG0xk-mBak-31" value="Recommendations" style="rounded=1;whiteSpace=wrap;html=1;fontFamily=Open sans;fontSource=https%3A%2F%2Ffonts.googleapis.com%2Fcss%3Ffamily%3DOpen%2Bsans;fontSize=16;fillColor=#f8cecc;strokeColor=#b85450;" parent="9Gz_EmqZ1ZgQvYvoxP-e-1" vertex="1">
                    <mxGeometry x="440" y="400" width="140" height="60" as="geometry"/>
                </mxCell>
                <mxCell id="MVi3NGULrBcG0xk-mBak-33" value="" style="html=1;shadow=0;dashed=0;align=center;verticalAlign=middle;shape=mxgraph.arrows2.bendArrow;dy=7.5;dx=38;notch=7;arrowHead=33;rounded=1;fontFamily=Open sans;fontSource=https%3A%2F%2Ffonts.googleapis.com%2Fcss%3Ffamily%3DOpen%2Bsans;fontSize=16;rotation=-180;flipH=1;fillColor=#E6E6E6;strokeColor=#E6E6E6;" parent="9Gz_EmqZ1ZgQvYvoxP-e-1" vertex="1">
                    <mxGeometry x="220" y="270" width="70" height="76" as="geometry"/>
                </mxCell>
                <mxCell id="MVi3NGULrBcG0xk-mBak-34" value="" style="html=1;shadow=0;dashed=0;align=center;verticalAlign=middle;shape=mxgraph.arrows2.bendArrow;dy=7.5;dx=38;notch=7;arrowHead=33;rounded=1;fontFamily=Open sans;fontSource=https%3A%2F%2Ffonts.googleapis.com%2Fcss%3Ffamily%3DOpen%2Bsans;fontSize=16;rotation=-180;flipH=1;fillColor=#E6E6E6;strokeColor=#E6E6E6;" parent="9Gz_EmqZ1ZgQvYvoxP-e-1" vertex="1">
                    <mxGeometry x="361" y="370" width="70" height="76" as="geometry"/>
                </mxCell>
                <mxCell id="MVi3NGULrBcG0xk-mBak-35" value="Machine&lt;br&gt;learning&lt;br&gt;model" style="text;html=1;strokeColor=none;fillColor=none;align=center;verticalAlign=middle;whiteSpace=wrap;rounded=0;fontFamily=Open sans;fontSource=https%3A%2F%2Ffonts.googleapis.com%2Fcss%3Ffamily%3DOpen%2Bsans;fontSize=16;fontStyle=1" parent="9Gz_EmqZ1ZgQvYvoxP-e-1" vertex="1">
                    <mxGeometry x="160" y="320" width="40" height="20" as="geometry"/>
                </mxCell>
                <mxCell id="MVi3NGULrBcG0xk-mBak-36" value="Optimization&lt;br&gt;model" style="text;html=1;strokeColor=none;fillColor=none;align=center;verticalAlign=middle;whiteSpace=wrap;rounded=0;fontFamily=Open sans;fontSource=https%3A%2F%2Ffonts.googleapis.com%2Fcss%3Ffamily%3DOpen%2Bsans;fontSize=16;fontStyle=1" parent="9Gz_EmqZ1ZgQvYvoxP-e-1" vertex="1">
                    <mxGeometry x="290" y="420" width="40" height="20" as="geometry"/>
                </mxCell>
                <mxCell id="MVi3NGULrBcG0xk-mBak-37" value="" style="html=1;shadow=0;dashed=0;align=center;verticalAlign=middle;shape=mxgraph.arrows2.arrow;dy=0.6;dx=34;notch=15;fontFamily=Open sans;fontSource=https%3A%2F%2Ffonts.googleapis.com%2Fcss%3Ffamily%3DOpen%2Bsans;fontSize=16;fontColor=#CCFFCC;fillColor=#E6E6E6;strokeColor=#E6E6E6;" parent="9Gz_EmqZ1ZgQvYvoxP-e-1" vertex="1">
                    <mxGeometry x="590" y="405" width="75" height="50" as="geometry"/>
                </mxCell>
                <mxCell id="MVi3NGULrBcG0xk-mBak-39" value="Decisions" style="rounded=1;whiteSpace=wrap;html=1;fontFamily=Open sans;fontSource=https%3A%2F%2Ffonts.googleapis.com%2Fcss%3Ffamily%3DOpen%2Bsans;fontSize=16;fillColor=#60a917;strokeColor=#2D7600;fontColor=#ffffff;fontStyle=1" parent="9Gz_EmqZ1ZgQvYvoxP-e-1" vertex="1">
                    <mxGeometry x="670" y="400" width="120" height="60" as="geometry"/>
                </mxCell>
                <mxCell id="MVi3NGULrBcG0xk-mBak-40" value="" style="image;html=1;image=img/lib/clip_art/finance/Coins_128x128.png;fontFamily=Open sans;fontSource=https%3A%2F%2Ffonts.googleapis.com%2Fcss%3Ffamily%3DOpen%2Bsans;fontSize=16;fontColor=#000000;strokeColor=#E6E6E6;fillColor=#E6E6E6;" parent="9Gz_EmqZ1ZgQvYvoxP-e-1" vertex="1">
                    <mxGeometry x="714" y="440" width="30" height="20" as="geometry"/>
                </mxCell>
            </root>
        </mxGraphModel>
    </diagram>
</mxfile>
